<?xml version="1.0" encoding="UTF-8" standalone="yes"?>
<!DOCTYPE svg PUBLIC "-//W3C//DTD SVG 1.1//EN" "http://www.w3.org/Graphics/SVG/1.1/DTD/svg11.dtd">

<svg width="500" height="500" viewBox="0 0 500 500" xmlns="http://www.w3.org/2000/svg" xmlns:xlink="http://www.w3.org/1999/xlink" version="1.1" baseProfile="full">
    <g transform="scale(1,-1) translate(0,-500)">
        <path d="M 1.927295 364.523736 L 2.261110 355.615530 L 3.262558 346.898101 L 4.931641 338.371441 L 7.268361 330.035541 L 10.272720 321.890396 L 13.944722 313.935996 L 18.284369 306.172335 L 23.291662 298.599405 L 91.047227 200.933730 L 229.000000 1.939917 L 366.952773 200.933730 L 432.266696 295.547353 L 437.846257 303.435023 L 442.681865 311.532502 L 446.773525 319.839795 L 450.121239 328.356910 L 452.725010 337.083854 L 454.584843 346.020635 L 455.700740 355.167260 L 456.072705 364.523736 L 455.552907 376.059581 L 453.993510 387.166201 L 451.394510 397.843604 L 447.755904 408.091801 L 443.077687 417.910801 L 437.359855 427.300613 L 430.602405 436.261247 L 422.805333 444.792713 L 414.273867 452.589785 L 405.313233 459.347234 L 395.923420 465.065066 L 386.104420 469.743282 L 375.856222 473.381889 L 365.178818 475.980888 L 354.072198 477.540285 L 342.536353 478.060083 L 329.011917 477.277999 L 315.907192 474.931742 L 303.222125 471.021301 L 290.956666 465.546669 L 279.454214 458.736772 L 269.058177 450.820528 L 259.768515 441.797909 L 251.585188 431.668888 L 250.974778 431.668888 L 148.425814 283.339143 L 141.711276 294.021347 L 136.827997 305.313914 L 133.775958 317.216895 L 132.555141 329.730339 L 132.555141 331.561571 L 133.470750 343.617197 L 136.217586 355.367573 L 140.795663 366.812746 L 147.204993 377.952766 L 160.023614 396.265080 L 194.206602 445.708328 L 185.632219 453.290803 L 176.695429 459.862268 L 167.396225 465.422728 L 157.734595 469.972186 L 147.710532 473.510647 L 137.324026 476.038114 L 126.575067 477.554592 L 115.463647 478.060083 L 103.927802 477.540285 L 92.821182 475.980888 L 82.143778 473.381889 L 71.895580 469.743282 L 62.076580 465.065066 L 52.686767 459.347234 L 43.726133 452.589785 L 35.194667 444.792713 L 27.397595 436.261247 L 20.640145 427.300613 L 14.922313 417.910801 L 10.244096 408.091801 L 6.605490 397.843604 L 4.006490 387.166201 L 2.447093 376.059581 L 1.927295 364.523736 Z" transform="scale(1.000000,1.000000) translate(21.000000,10.000000)" opacity="1.000000"></path>
    </g>
</svg>