<?xml version="1.0" encoding="UTF-8" standalone="yes"?>
<!DOCTYPE svg PUBLIC "-//W3C//DTD SVG 1.1//EN" "http://www.w3.org/Graphics/SVG/1.1/DTD/svg11.dtd">

<svg width="500" height="500" viewBox="0 0 500 500" xmlns="http://www.w3.org/2000/svg" xmlns:xlink="http://www.w3.org/1999/xlink" version="1.1" baseProfile="full">
    <g transform="scale(1,-1) translate(0,-500)">
        <path d="M 1.369143 4.887561 L 176.319143 235.305418 L 180.195369 232.362306 L 5.245369 1.944449 L 1.369143 4.887561 Z" transform="scale(1.000000,1.000000) translate(153.000000,-72.000000)" fill="#242424" opacity="0.279833"></path>
        <path d="M 1.047910 4.578558 L 175.997911 234.996415 L 179.874136 232.053302 L 4.924136 1.635445 L 1.047910 4.578558 Z" transform="scale(1.000000,1.000000) translate(104.000000,-103.000000)" fill="#242424" opacity="0.279833"></path>
        <path d="M 1.487456 4.401803 L 176.437456 234.819660 L 180.313682 231.876547 L 5.363682 1.458690 L 1.487456 4.401803 Z" transform="scale(1.000000,1.000000) translate(180.000000,-72.000000)" fill="#242424" opacity="0.279833"></path>
        <path d="M 1.787567 4.891500 L 176.737567 235.309357 L 180.613792 232.366244 L 5.663792 1.948387 L 1.787567 4.891500 Z" transform="scale(1.000000,1.000000) translate(235.000000,-39.000000)" fill="#242424" opacity="0.279833"></path>
        <path d="M 1.366324 4.410290 L 176.316324 234.828147 L 180.192550 231.885035 L 5.242550 1.467177 L 1.366324 4.410290 Z" transform="scale(1.000000,1.000000) translate(279.000000,-21.000000)" fill="#242424" opacity="0.279833"></path>
        <path d="M 1.302289 3.962353 L 176.252289 234.380210 L 180.128515 231.437097 L 5.178515 1.019240 L 1.302289 3.962353 Z" transform="scale(1.000000,1.000000) translate(14.000000,-182.000000)" fill="#242424" opacity="0.279833"></path>
        <path d="M 1.262645 4.628464 L 176.212645 235.046321 L 180.088871 232.103209 L 5.138871 1.685352 L 1.262645 4.628464 Z" transform="scale(1.000000,1.000000) translate(-11.000000,-179.000000)" fill="#242424" opacity="0.279833"></path>
    </g>
</svg>