<?xml version="1.0" encoding="UTF-8" standalone="yes"?>
<!DOCTYPE svg PUBLIC "-//W3C//DTD SVG 1.1//EN" "http://www.w3.org/Graphics/SVG/1.1/DTD/svg11.dtd">

<svg width="210" height="210" viewBox="0 0 210 210" xmlns="http://www.w3.org/2000/svg" xmlns:xlink="http://www.w3.org/1999/xlink" version="1.1" baseProfile="full">
    <g transform="scale(1,-1) translate(0,-210)">
        <path d="M 137.610500 50.389400 L 186.387900 55.731600 L 160.274500 88.268500 L 154.960400 84.003500 L 153.601300 83.121100 L 152.138400 82.544700 L 150.616900 82.269300 L 149.082100 82.290100 L 147.579100 82.602000 L 146.153300 83.200100 L 144.849800 84.079500 L 143.713900 85.235200 L 112.710300 123.864800 L 111.827900 125.224000 L 111.251500 126.686900 L 110.976200 128.208300 L 110.997000 129.743200 L 111.308900 131.246100 L 111.907000 132.671900 L 112.786400 133.975400 L 113.942000 135.111300 L 135.949700 152.774400 L 132.268300 186.387900 L 94.000000 155.674500 L 55.731600 186.387900 L 50.389400 137.610500 L 1.612000 132.268300 L 32.325400 94.000000 L 1.612000 55.731600 L 50.389400 50.389400 L 55.731600 1.612000 L 94.000000 32.325400 L 132.268300 1.612000 Z" transform="scale(1.000000,1.000000) translate(11.000000,11.000000)" fill="#ffffff" opacity="0.000000"></path>
        <path d="M 143.546100 2.192100 L 144.746500 2.439200 L 145.903800 2.835100 L 147.002100 3.373500 L 148.025600 4.047600 L 148.958500 4.851000 L 149.785100 5.777100 L 150.489600 6.819300 L 151.056000 7.971200 L 151.468700 9.226200 L 151.711800 10.577700 L 156.223900 51.776000 L 197.422200 56.288100 L 198.773700 56.531200 L 200.028700 56.943900 L 201.180600 57.510300 L 202.222800 58.214800 L 203.148900 59.041400 L 203.952300 59.974300 L 204.626400 60.997800 L 205.164800 62.096100 L 205.560700 63.253400 L 205.807800 64.453800 L 205.899400 65.681600 L 205.829000 66.920900 L 205.590100 68.156000 L 205.176200 69.371100 L 204.580600 70.550300 L 203.796800 71.677900 L 177.855700 104.000000 L 178.652200 104.992400 L 164.960400 94.003500 L 163.601300 93.121100 L 162.555200 92.708900 L 178.140500 73.289900 L 146.576200 69.833000 L 144.963400 69.514000 L 143.462400 68.937100 L 142.097400 68.126600 L 140.892900 67.107000 L 139.873300 65.902500 L 139.062800 64.537500 L 138.485900 63.036500 L 138.166900 61.423700 L 134.710000 29.859400 L 109.946200 49.734300 L 108.580300 50.649200 L 107.111000 51.302600 L 105.572700 51.694700 L 104.000000 51.825400 L 102.427200 51.694700 L 100.888900 51.302600 L 99.419600 50.649200 L 98.053700 49.734300 L 73.289900 29.859400 L 69.833000 61.423700 L 69.514000 63.036500 L 68.937100 64.537500 L 68.126600 65.902500 L 67.107000 67.107000 L 65.902500 68.126600 L 64.537500 68.937100 L 63.036500 69.514000 L 61.423700 69.833000 L 29.859400 73.289900 L 49.734300 98.053700 L 50.649200 99.419600 L 51.302600 100.888900 L 51.694700 102.427200 L 51.825400 104.000000 L 51.694700 105.572700 L 51.302600 107.111000 L 50.649200 108.580300 L 49.734300 109.946200 L 29.859400 134.710000 L 61.423700 138.166900 L 63.036500 138.485900 L 64.537500 139.062800 L 65.902500 139.873300 L 67.107000 140.892900 L 68.126600 142.097400 L 68.937100 143.462400 L 69.514000 144.963400 L 69.833000 146.576200 L 73.289900 178.140500 L 98.053700 158.265600 L 99.419600 157.350700 L 100.888900 156.697300 L 102.427200 156.305200 L 104.000000 156.174500 L 105.572700 156.305200 L 107.111000 156.697300 L 108.580300 157.350700 L 109.946200 158.265600 L 134.710000 178.140500 L 137.165000 155.723900 L 154.734300 169.824800 L 151.711800 197.422200 L 151.468700 198.773700 L 151.056000 200.028700 L 150.489600 201.180600 L 149.785100 202.222800 L 148.958500 203.148900 L 148.025600 203.952300 L 147.002100 204.626400 L 145.903800 205.164800 L 144.746500 205.560700 L 143.546100 205.807800 L 142.318300 205.899400 L 141.079000 205.829000 L 139.843900 205.590100 L 138.628800 205.176200 L 137.449600 204.580600 L 136.322000 203.796800 L 104.000000 177.855700 L 71.677900 203.796800 L 70.550300 204.580600 L 69.371100 205.176200 L 68.156000 205.590100 L 66.920900 205.829000 L 65.681600 205.899400 L 64.453800 205.807800 L 63.253400 205.560700 L 62.096100 205.164800 L 60.997800 204.626400 L 59.974300 203.952300 L 59.041400 203.148900 L 58.214800 202.222800 L 57.510300 201.180600 L 56.943900 200.028700 L 56.531200 198.773700 L 56.288100 197.422200 L 51.776000 156.223900 L 10.577700 151.711800 L 9.226200 151.468700 L 7.971200 151.056000 L 6.819300 150.489600 L 5.777100 149.785100 L 4.851000 148.958500 L 4.047600 148.025600 L 3.373500 147.002100 L 2.835100 145.903800 L 2.439200 144.746500 L 2.192100 143.546100 L 2.100500 142.318300 L 2.170900 141.079000 L 2.409800 139.843900 L 2.823700 138.628800 L 3.419300 137.449600 L 4.203100 136.322000 L 30.144200 104.000000 L 4.203100 71.677900 L 3.419300 70.550300 L 2.823700 69.371100 L 2.409800 68.156000 L 2.170900 66.920900 L 2.100500 65.681600 L 2.192100 64.453800 L 2.439200 63.253400 L 2.835100 62.096100 L 3.373500 60.997800 L 4.047600 59.974300 L 4.851000 59.041400 L 5.777100 58.214800 L 6.819300 57.510300 L 7.971200 56.943900 L 9.226200 56.531200 L 10.577700 56.288100 L 51.776000 51.776000 L 56.288100 10.577700 L 56.531200 9.226200 L 56.943900 7.971200 L 57.510300 6.819300 L 58.214800 5.777100 L 59.041400 4.851000 L 59.974300 4.047600 L 60.997800 3.373500 L 62.096100 2.835100 L 63.253400 2.439200 L 64.453800 2.192100 L 65.681600 2.100500 L 66.920900 2.170900 L 68.156000 2.409800 L 69.371100 2.823700 L 70.550300 3.419300 L 71.677900 4.203100 L 104.000000 30.144200 L 136.322000 4.203100 L 137.449600 3.419300 L 138.628800 2.823700 L 139.843900 2.409800 L 141.079000 2.170900 L 142.318300 2.100500 Z" transform="scale(1.000000,1.000000) translate(1.000000,1.000000)" fill="#ffffff" opacity="1.000000"></path>
        <path d="M 17.787425 45.371324 L 51.718017 19.228081 L 38.476548 18.310077 L 125.249866 106.752112 C 129.117740 110.694369 135.449103 110.754668 139.391360 106.886793 C 143.333617 103.018919 143.393916 96.687556 139.526041 92.745299 L 52.752723 4.303264 C 49.207480 0.689843 43.521207 0.295625 39.511254 3.385261 L 5.580662 29.528504 C 1.205788 32.899308 0.391829 39.178421 3.762634 43.553295 C 7.133438 47.928169 13.412551 48.742128 17.787425 45.371324 Z" transform="scale(1.000000,1.000000) translate(65.000000,72.000000)" fill="#ffffff" opacity="1.000000"></path>
    </g>
</svg>